<?xml version="1.0" encoding="UTF-8"?>
<svg width="28px" height="28px" viewBox="0 0 28 28" version="1.1" xmlns="http://www.w3.org/2000/svg" xmlns:xlink="http://www.w3.org/1999/xlink">
    <g id="工厂配色" stroke="none" stroke-width="1" fill="none" fill-rule="evenodd" opacity="0.300000012">
        <g id="切图" transform="translate(-42.000000, -1009.000000)" fill="#03619A">
            <g id="编组-13" transform="translate(20.000000, 984.000000)">
                <g id="编组-40" transform="translate(22.000000, 25.000000)">
                    <g id="编组" transform="translate(0.833333, 0.383586)">
                        <rect id="矩形" x="0" y="1.44974747" width="7" height="7" rx="1"></rect>
                        <rect id="矩形备份" x="0" y="10.4497475" width="7" height="7" rx="1"></rect>
                        <rect id="矩形备份-3" x="9" y="10.4497475" width="7" height="7" rx="1"></rect>
                        <rect id="矩形备份-4" x="9" y="19.4497475" width="7" height="7" rx="1"></rect>
                        <rect id="矩形备份-5" x="18" y="19.4497475" width="7" height="7" rx="1"></rect>
                        <rect id="矩形备份-2" x="0" y="19.4497475" width="7" height="7" rx="1"></rect>
                        <path d="M19.0414498,1.47100155 L23.9001999,1.57015971 C24.4365019,1.58110465 24.8686428,2.01324557 24.8795878,2.54954761 L24.9787459,7.40829766 C24.9900147,7.96046743 24.5515278,8.41722462 23.999358,8.42849339 C23.9857568,8.42877097 23.9721514,8.42877097 23.9585502,8.42849339 L19.0998001,8.32933523 C18.5634981,8.31839029 18.1313572,7.88624937 18.1204122,7.34994732 L18.0212541,2.49119728 C18.0099853,1.9390275 18.4484722,1.48227032 19.000642,1.47100155 C19.0142432,1.47072397 19.0278486,1.47072397 19.0414498,1.47100155 Z" id="矩形备份-6" transform="translate(21.500000, 4.949747) rotate(-135.000000) translate(-21.500000, -4.949747) "></path>
                    </g>
                </g>
            </g>
        </g>
    </g>
</svg>