<?xml version="1.0" encoding="UTF-8"?>
<svg width="32px" height="32px" viewBox="0 0 32 32" version="1.1" xmlns="http://www.w3.org/2000/svg" xmlns:xlink="http://www.w3.org/1999/xlink">
    <g id="工厂配色" stroke="none" stroke-width="1"  fill-rule="evenodd">
        <g id="切图" transform="translate(-40.000000, -208.000000)" >
            <g id="编组-55" transform="translate(0.000000, 180.000000)">
                <g id="编组-15" transform="translate(40.000000, 28.000000)">
                    <path d="M7,6 L13.4210526,6 C13.9733374,6 14.4210526,6.44771525 14.4210526,7 L14.4210526,13.4210526 C14.4210526,13.9733374 13.9733374,14.4210526 13.4210526,14.4210526 L7,14.4210526 C6.44771525,14.4210526 6,13.9733374 6,13.4210526 L6,7 C6,6.44771525 6.44771525,6 7,6 Z M7,17.5789474 L13.4210526,17.5789474 C13.9733374,17.5789474 14.4210526,18.0266626 14.4210526,18.5789474 L14.4210526,25 C14.4210526,25.5522847 13.9733374,26 13.4210526,26 L7,26 C6.44771525,26 6,25.5522847 6,25 L6,18.5789474 C6,18.0266626 6.44771525,17.5789474 7,17.5789474 Z M18.5789474,6 L25,6 C25.5522847,6 26,6.44771525 26,7 L26,13.4210526 C26,13.9733374 25.5522847,14.4210526 25,14.4210526 L18.5789474,14.4210526 C18.0266626,14.4210526 17.5789474,13.9733374 17.5789474,13.4210526 L17.5789474,7 C17.5789474,6.44771525 18.0266626,6 18.5789474,6 Z M18.5789474,17.5789474 L25,17.5789474 C25.5522847,17.5789474 26,18.0266626 26,18.5789474 L26,25 C26,25.5522847 25.5522847,26 25,26 L18.5789474,26 C18.0266626,26 17.5789474,25.5522847 17.5789474,25 L17.5789474,18.5789474 C17.5789474,18.0266626 18.0266626,17.5789474 18.5789474,17.5789474 Z" id="形状结合" transform="translate(16.000000, 16.000000) rotate(-315.000000) translate(-16.000000, -16.000000) "></path>
                </g>
            </g>
        </g>
    </g>
</svg>