<?xml version="1.0" encoding="UTF-8"?>
<svg width="32px" height="32px" viewBox="0 0 32 32" version="1.1" xmlns="http://www.w3.org/2000/svg" xmlns:xlink="http://www.w3.org/1999/xlink">
    <g id="工厂配色" stroke="none" stroke-width="1" fill-rule="evenodd">
        <g id="切图" transform="translate(-275.000000, -384.000000)" >
            <g id="编组-50" transform="translate(0.000000, 356.000000)">
                <g id="编组-5备份" transform="translate(275.000000, 28.000000)">
                    <path d="M6,11.6912712 C6.16850297,11.6912712 6.33427377,11.7338506 6.48191875,11.8150553 L14.4819187,16.2150553 C14.801467,16.3908069 15,16.72658 15,17.0912712 L15,26.2338096 C15,26.7860944 14.5522847,27.2338096 14,27.2338096 C13.8187561,27.2338096 13.6409196,27.1845518 13.4855042,27.0913025 L5.48550424,22.2913025 C5.18429883,22.1105793 5,21.7850725 5,21.4338096 L5,12.6912712 C5,12.1389865 5.44771525,11.6912712 6,11.6912712 Z M26,11.6912712 C26.5522847,11.6912712 27,12.1389865 27,12.6912712 L27,12.6912712 L27,21.4338096 C27,21.7850725 26.8157012,22.1105793 26.5144958,22.2913025 L26.5144958,22.2913025 L18.5144958,27.0913025 C18.3590804,27.1845518 18.1812439,27.2338096 18,27.2338096 C17.4477153,27.2338096 17,26.7860944 17,26.2338096 L17,26.2338096 L17,17.0912712 C17,16.72658 17.198533,16.3908069 17.5180813,16.2150553 L17.5180813,16.2150553 L25.5180813,11.8150553 C25.6657262,11.7338506 25.831497,11.6912712 26,11.6912712 Z M16.4164395,4.11968097 L25.2613972,8.17108608 C25.7635143,8.40107924 25.9841144,8.99457188 25.7541212,9.49668899 C25.6645607,9.69221596 25.5143511,9.85366044 25.3257805,9.95706738 L16.4808227,14.8073979 C16.181313,14.9716408 15.818687,14.9716408 15.5191773,14.8073979 L6.67421954,9.95706738 C6.18996641,9.69151634 6.01267334,9.08367996 6.27822438,8.59942684 C6.38163131,8.41085619 6.54307579,8.2606466 6.73860277,8.17108608 L15.5835605,4.11968097 C15.8479776,3.99856557 16.1520224,3.99856557 16.4164395,4.11968097 Z" id="形状结合"></path>
                </g>
            </g>
        </g>
    </g>
</svg>