<?xml version="1.0" encoding="UTF-8"?>
<svg width="32px" height="32px" viewBox="0 0 32 32" version="1.1" xmlns="http://www.w3.org/2000/svg" xmlns:xlink="http://www.w3.org/1999/xlink">
    <g id="工厂配色" stroke="none" stroke-width="1"  fill-rule="evenodd">
        <g id="切图" transform="translate(-40.000000, -894.000000)">
            <g id="编组-54" transform="translate(16.000000, 880.000000)">
                <!-- <rect id="矩形备份-11" x="0" y="0" width="236" height="60" rx="4"></rect> -->
                <path d="M43,32.5 L43,41 C43,41.5522847 42.5522847,42 42,42 L28,42 C27.4477153,42 27,41.5522847 27,41 L27,21 C27,20.4477153 27.4477153,20 28,20 L42,20 C42.5522847,20 43,20.4477153 43,21 L43,29.5 L50.256,29.4992582 L47.9362728,25.3755961 C47.6875368,24.9333988 47.8093612,24.37501 48.2196767,24.0765988 L48.8164351,23.6425926 C49.2630878,23.3177544 49.8885047,23.4165044 50.2133429,23.863157 C50.2306727,23.8869854 50.2469408,23.911568 50.2620998,23.9368329 L54.1913025,30.4855042 C54.381312,30.8021866 54.381312,31.1978134 54.1913025,31.5144958 L50.2620998,38.0631671 C49.9779516,38.5367473 49.3636914,38.6903124 48.8901111,38.4061642 C48.8648462,38.3910053 48.8402635,38.3747371 48.8164351,38.3574074 L48.2196767,37.9234012 C47.8093612,37.62499 47.6875368,37.0666012 47.9362728,36.6244039 L50.256,32.4992582 L43,32.5 Z M43.000703,29.5856015 C42.8963109,29.5486454 42.7866094,29.522919 42.6730503,29.5098743 L42.5,29.5 L32,29.5 C31.4871642,29.5 31.0644928,29.8860402 31.0067277,30.3833789 L31,30.5 L31,31.5 C31,32.0128358 31.3860402,32.4355072 31.8833789,32.4932723 L32,32.5 L42.5,32.5 C42.6755804,32.5 42.8441149,32.4698327 43.000703,32.4143985 L43.000703,29.5856015 Z" id="形状结合" ></path>
            </g>
        </g>
    </g>
</svg>