<?xml version="1.0" encoding="UTF-8"?>
<svg width="30px" height="30px" viewBox="0 0 30 30" version="1.1" xmlns="http://www.w3.org/2000/svg" xmlns:xlink="http://www.w3.org/1999/xlink">
    <g id="工厂配色" stroke="none" stroke-width="1" fill="none" fill-rule="evenodd">
        <g id="切图" transform="translate(-1680.000000, -51.000000)" fill="#03619A">
            <g id="编组-22" transform="translate(1680.000000, 51.000000)">
                <g id="编组-45" transform="translate(4.000000, 2.000000)">
                    <path d="M11,0 C15.9705627,-9.13077564e-16 20,4.02943725 20,9 L20,17 L20,17 L20.9635332,18.4452998 C21.2698857,18.9048285 21.1457118,19.5256978 20.6861831,19.8320503 C20.5219156,19.941562 20.3289079,20 20.1314829,20 L1.86988878,20 C1.31760403,20 0.869888778,19.5522847 0.869888778,19 C0.869888778,18.8023671 0.928449868,18.6091656 1.03817726,18.444792 L2,17.0039644 L2,17.0039644 L2,9 C2,4.02943725 6.02943725,9.13077564e-16 11,0 Z" id="矩形"></path>
                    <path d="M7.38267627,24.3562002 C8.05899735,26.1187334 9.26477193,27 11,27 C12.7352281,27 13.9410027,26.1187334 14.6173237,24.3562002 C14.8153677,23.8406438 14.5567519,23.2627029 14.0407793,23.0657491 C13.9273421,23.0224485 13.8069673,23.000169 13.6855469,23 L8.31445312,23 C7.76216891,23.0007653 7.31507367,23.4490997 7.31583797,24.0013839 C7.316006,24.1228043 7.33828554,24.2431791 7.38267627,24.3562002 Z" id="路径"></path>
                </g>
            </g>
        </g>
    </g>
</svg>