<?xml version="1.0" encoding="UTF-8"?>
<svg width="32px" height="32px" viewBox="0 0 32 32" version="1.1" xmlns="http://www.w3.org/2000/svg" xmlns:xlink="http://www.w3.org/1999/xlink">
    <g id="工厂配色" stroke="none" stroke-width="1" >
        <g id="切图" transform="translate(-205.000000, -296.000000)">
            <g id="编组-49" transform="translate(0.000000, 268.000000)">
                <path d="M221,44 C224.313708,44 227,41.3137085 227,38 C227,34.6862915 224.313708,32 221,32 C217.686292,32 215,34.6862915 215,38 C215,41.3137085 217.686292,44 221,44 Z M231.896451,53.1397549 C229.639258,48.3799183 226.007107,46 221,46 C215.992893,46 212.360742,48.3799183 210.103549,53.1397549 C209.62991,54.1376232 210.053497,55.3310071 211.050815,55.8058033 C211.318969,55.9334642 211.612188,55.9998021 211.90918,56 L230.09082,56 C231.19539,55.9992653 232.090225,55.1032398 232.08949,53.9986706 C232.089293,53.7016792 232.022955,53.4084596 231.896451,53.1397549 Z" id="形状结合备份-2" ></path>
            </g>
        </g>
    </g>
</svg>